<svg xmlns="http://www.w3.org/2000/svg" viewBox="0 0 40 40" >
<defs/><defs><radialGradient id="a" cy="0%" r="100.1%" fx="50%" fy="0%" gradientTransform="matrix(0 .9989 -1.152 0 1 0)"><stop offset="0%" stop-color="#20C6B7"/><stop offset="100%" stop-color="#4D9ABF"/></radialGradient></defs><path fill="url(#a)" d="M29 14V9l4 4-4 2a2 2 0 000-1zm5 0l4 4 1 1v1l-9-4 4-2zm5 7l-1 1-5 5-5-2a2 2 0 00-1-1l1-6v-1a2 2 0 001 0l10 4zm-7 7l-7 7 1-8a2 2 0 001 0l5 1zm-8 8l-1 1-9-13 10 2a2 2 0 001 1l-1 9zm-2 2l-1 1a2 2 0 01-2 0l-1-1-9-9 2-4a2 2 0 002 0l9 13zM8 28l-2-2 4-2-2 4zm-3-3l-3-3-1-1 8 2-4 2zm-4-5a2 2 0 010-1l1-1 4-4a2176 2176 0 004 7 3 3 0 000 1l-9-2zm6-7l4-4 3 1 3 1a2 2 0 000 2l-4 8h-1a2 2 0 000-1l-1 1-4-8zm5-5l6-6 1-1a2 2 0 012 0l1 1 2 2-5 6a2 2 0 00-2 0l-5-2zm12-4l4 4-1 6-6-2a2 2 0 00-1-1l4-7zm-4 9l6 2v1l-12 5 4-7h1l1-1zm-6 9l13-5-1 7a2 2 0 00-2 1l-10-2v-1z"/>
</svg>