<svg viewBox="0 0 190 32" xmlns="http://www.w3.org/2000/svg" style="fill: white" >
<defs><linearGradient id="a" x1="99.7%" x2="39.8%" y1="15.8%" y2="97.4%"><stop offset="0%" stop-color="#fff" stop-opacity=".4"/><stop offset="100%" stop-color="#fff"/></linearGradient></defs><path fill="url(#a)" d="M7 16a1 1 0 00-1 0L0 27v1h9c2-4 1-9-2-12z"/><path d="M11 5c-3 5-3 10-1 15l4 8h9v-1L12 5a1 1 0 00-1 0z"/><path fill="inherit" d="M104 14c0 3 2 5 7 6 3 1 3 2 3 3l-2 1-8-2v5l8 1c5 0 7-2 7-6m0 0c0-3-2-4-7-6-3 0-3-1-3-2l3-1 6 1v-4l-6-1c-5 0-8 2-8 5m69-5v19h4V14l2 3 6 11h5V9h-4v12l-2-3-4-9zm-30 0h5v19h-5zm-5 13c0-3-2-4-7-6-3 0-4-1-4-2l3-1 7 1v-4l-7-1c-5 0-7 2-7 5s1 5 6 6l4 3-3 1-7-2v5l7 1c5 0 8-2 8-6M70 9v19h9l1-4h-6V9zM52 9v4h5v15h4V13h5V9zm-7 0h-6l-6 19h5l1-3h7l1 3h5L45 9zm-3 12h-2l2-8 3 8h-3zM95 9h-6l-7 19h5l1-3h7l1 3h5L95 9zm-3 12h-3l3-8 2 8h-2zm71-12h-6l-6 19h5l1-3h7l1 3h5l-7-19zm-3 12h-2l2-8 3 8h-3z"/>
</svg>